<?xml version="1.0" encoding="utf-8"?>
<!-- Generator: Adobe Illustrator 24.3.0, SVG Export Plug-In . SVG Version: 6.00 Build 0)  -->
<svg version="1.1" id="Capa_1" xmlns="http://www.w3.org/2000/svg" xmlns:xlink="http://www.w3.org/1999/xlink" x="0px" y="0px"
	 viewBox="0 0 512 512" style="enable-background:new 0 0 512 512;" xml:space="preserve">
<style type="text/css">
	.st0{fill:#FFFFFF;}
</style>
<path class="st0" d="M466,181h-83c5.3-14.4,8-29.5,8-45C391,61,330.4,0,256,0S121,61,121,136c0,15.5,2.7,30.6,8,45H46
	c-8.3,0-15,6.7-15,15v301c0,8.3,6.7,15,15,15h420c8.3,0,15-6.7,15-15V196C481,187.7,474.3,181,466,181L466,181z M256,30
	c77.8,0,128.2,83,94.4,151h-50.2c4.8-23.4-13.2-45-36.7-45h-15c-4.1,0-7.5-3.4-7.5-7.5c0-4.1,3.4-7.5,7.5-7.5H286
	c8.3,0,15-6.7,15-15s-6.7-15-15-15h-15V76c0-8.3-6.7-15-15-15s-15,6.7-15,15v15.8c-17.1,3.5-30,18.6-30,36.7
	c0,20.7,16.8,37.5,37.5,37.5h15c4.1,0,7.5,3.4,7.5,7.5s-3.4,7.5-7.5,7.5H161.6C127.8,113,178.2,30,256,30z M451,211v30H61v-30H451z
	 M61,482V271h390v211H61z"/>
<path class="st0" d="M256,312.3c-32.7-26.5-80-4-80,43.6c0,21,12.6,43.2,37.3,66.1c17.1,15.8,34.1,26.3,34.8,26.8
	c4.8,3,10.9,3,15.7,0c0.7-0.4,17.7-11,34.8-26.8c24.8-22.9,37.3-45.1,37.3-66.1C336,308.2,288.6,285.8,256,312.3L256,312.3z
	 M256,418c-18.4-13-50-39.9-50-62.2c0-24.5,23.6-34.6,37.4-13.1c5.9,9.2,19.4,9.2,25.3,0c13.8-21.5,37.4-11.4,37.4,13.1
	C306,376.3,278,402.7,256,418z"/>
</svg>
