<?xml version="1.0" encoding="utf-8"?>
<!-- Generator: Adobe Illustrator 24.3.0, SVG Export Plug-In . SVG Version: 6.00 Build 0)  -->
<svg version="1.1" id="Capa_1" xmlns="http://www.w3.org/2000/svg" xmlns:xlink="http://www.w3.org/1999/xlink" x="0px" y="0px"
	 viewBox="0 0 480.1 480.1" style="enable-background:new 0 0 480.1 480.1;" xml:space="preserve">
<style type="text/css">
	.st0{fill:#FFFFFF;}
</style>
<g>
	<g>
		<path class="st0" d="M471,388.1c-16.9-29.6-47.8-35.2-53.9-36c-0.4,0-0.7-0.1-1.1-0.1h-84.7l-3.4-3.4c4.3-1.5,8.4-3.5,12.3-5.9
			c3.9-2.4,7.3-5.2,10.2-8.1l31.4,9l4.4-15.4l-25.1-7.2c3.3-5.7,5.4-11,6.6-14.8c0.2-0.8,0.3-1.5,0.3-2.3v-16.4l19.2-8.2l-6.3-14.7
			l-12.9,5.5V264c0-1.4-0.4-2.9-1.1-4.1l-24-40c-1.3-2.1-3.4-3.5-5.9-3.8c-2.4-0.3-4.9,0.5-6.6,2.3L308.7,240H304V139.3l11.3-11.3
			h10.3l22,14.7c3.7,2.5,8.6,1.5,11.1-2.2l16-24c1.8-2.7,1.8-6.2,0-8.9l-32-48c-1.5-2.2-4-3.6-6.7-3.6h-24c-3,0-5.8,1.7-7.2,4.4
			L291.1,88H205l-13.8-27.6c-1.4-2.7-4.1-4.4-7.2-4.4h-32c-2.6,0-5,1.2-6.5,3.4l-40,56c-2.3,3.2-1.9,7.5,0.8,10.3l16,16
			c2.7,2.7,6.9,3.1,10.1,1l22-14.7h18.3l3.3,3.3v87c-21.1,7.7-78.8,34-103.5,98.9c-14.6,38.3-11.3,74-6,97.4L48,403.5V376
			c0-9.2-5.1-17.4-13.3-21.5c-8.2-4.1-17.8-3.2-25.1,2.3C3.6,361.4,0,368.5,0,376v56c0,2.8,1.4,5.3,3.8,6.8l64,40
			c1.3,0.8,2.7,1.2,4.2,1.2h160h32h168c1.2,0,2.5-0.3,3.6-0.8l32-16c1.4-0.7,2.6-1.9,3.4-3.3C471.8,458.4,491,423.1,471,388.1z
			 M256,400l-47.4-0.2l0,16L256,416v48h-16c0-17.6-14.4-32-32-32h-16c0-39.7-32.3-72-72-72h-8v16h8c30.9,0,56,25.1,56,56v8
			c0,4.4,3.6,8,8,8h24c8.8,0,16,7.2,16,16H74.3L16,427.6V376c0-2.5,1.2-4.9,3.2-6.4c2.5-1.9,5.6-2.1,8.4-0.8
			c2.8,1.4,4.4,4.1,4.4,7.2v32c0,2.8,1.5,5.4,3.9,6.9l40,24c2.9,1.7,6.6,1.5,9.2-0.7c2.6-2.2,3.6-5.7,2.4-8.9
			c-6-16.3-18-59.3,0-106.4c1.2-3.1,2.5-6,3.8-8.9l0,0c26.9-58.5,83.9-78.8,95-82.3c3.4-1,5.6-4.1,5.6-7.6v-96
			c0-2.1-0.8-4.2-2.3-5.7l-8-8c-1.5-1.5-3.5-2.3-5.7-2.3h-24c-1.6,0-3.1,0.5-4.4,1.3L129,125.7l-6.6-6.6L156.1,72h22.9l13.8,27.6
			c1.4,2.7,4.1,4.4,7.2,4.4h96c3,0,5.8-1.7,7.2-4.4L317,72h14.8l26.7,40l-8.6,12.9l-17.3-11.6c-1.3-0.9-2.9-1.3-4.4-1.3h-16
			c-2.1,0-4.2,0.8-5.7,2.3l-16,16c-1.5,1.5-2.3,3.5-2.3,5.7v104h-20.7l-21.7-21.7c-1.7-1.8-4.2-2.6-6.6-2.3
			c-2.4,0.3-4.6,1.7-5.9,3.8l-24,40c-0.8,1.2-1.1,2.7-1.1,4.1v6.2l-12.8-5.5l-6.3,14.7l19.1,8.2v12.6v3.8c0,0.8,0.1,1.6,0.3,2.3
			c1.5,4.9,4.4,12.1,9.5,19.4l-28.7,10.8l5.6,15l34.8-13.1c1.9,1.5,3.9,3,6.1,4.4c6.1,3.8,13,6.6,20.2,8.1L256,400L256,400z
			 M458,450.1l-27.9,14h-72.4l-5.8-17.3v-20.3l10.2-15.4c1.3-1.9,3.4-3.1,5.7-3.1c3.5,0,5.2,2.3,5.8,3.3c0.6,1,1.8,3.6,0.3,6.7
			l-5.2,10.5c-1.5,3.1-0.9,6.8,1.5,9.2l8,8c1.5,1.5,3.5,2.3,5.7,2.3h40v-16h-36.7l-1.6-1.6l2.7-5.3c3.6-7.1,3.2-15.5-1-22.2
			S375.9,392,368,392c-7.7,0-14.8,3.8-19,10.2l-11.6,17.4c-0.9,1.3-1.3,2.9-1.3,4.4v24c0,0.9,0.1,1.7,0.4,2.5l4.5,13.5H312v-56h-16
			v56h-24v-56v-64c0-4.1-3.1-7.6-7.3-8c-5.9-0.5-11.4-2.1-16.4-4.6l10.5-3.9l-5.6-15l-19.7,7.4c-5.2-6.1-8-12.6-9.5-17.1v-2.6v-5.8
			l20.8,8.9l6.3-14.7L224,277.1v-10.8l17.6-29.3l16.8,16.8c1.5,1.5,3.5,2.3,5.7,2.3h32h16c2.1,0,4.2-0.8,5.7-2.3l16.8-16.8
			l17.6,29.3v10.8l-27.2,11.6l6.3,14.7l20.9-8.9v8.4c-1.2,3.7-3.4,8.7-6.9,13.8l-14.9-4.2l-4.4,15.4l5.7,1.6
			c-6.1,3.8-12.9,6-20.3,6.7c-3.1,0.3-5.7,2.3-6.8,5.2c-1.1,2.9-0.3,6.2,1.9,8.4l16,16c1.5,1.5,3.5,2.3,5.7,2.3h87.4
			c4.6,0.7,28.8,5.4,41.6,28C470.2,419.1,461.2,443,458,450.1z"/>
	</g>
</g>
<g>
	<g>
		<path class="st0" d="M472.6,105.6c-14.4-40-61.2-101.1-131-105.2C294.1-2.5,258,34.5,240.7,52.3c-0.3,0.3-0.7,0.7-1,1
			c-0.4-0.5-0.9-0.9-1.4-1.4c-17-17.7-52.7-54.5-99.9-51.7C68.6,4.3,21.8,65.3,7.4,105.4C-11.8,158.9,6.8,227.3,58.5,293l12.6-9.9
			C22.9,221.8,5.1,159,22.5,110.8c13-36,54.8-91,116.9-94.6c40.1-2.2,72.1,30.9,87.4,46.8c2.9,3,5.3,5.5,7.1,7.1
			c1,0.9,2.1,1.5,3.4,1.8l0.8,0.2c2.6,0.6,5.3,0,7.2-1.8c1.7-1.5,4-3.9,6.8-6.8c15.6-16,48.2-49.4,88.5-47.1
			C402.8,20,444.6,74.9,457.6,111c19.7,54.8-5.9,127.9-68.6,195.6l11.7,10.9C467.5,245.3,494.4,166.1,472.6,105.6z"/>
	</g>
</g>
<g>
	<g>
		<rect x="208" y="136" class="st0" width="16" height="16"/>
	</g>
</g>
<g>
	<g>
		<rect x="256" y="136" class="st0" width="16" height="16"/>
	</g>
</g>
<g>
	<g>
		<rect x="224" y="168" class="st0" width="32" height="16"/>
	</g>
</g>
<g>
	<g>
		<rect x="256" y="272" class="st0" width="16" height="16"/>
	</g>
</g>
<g>
	<g>
		<rect x="304" y="272" class="st0" width="16" height="16"/>
	</g>
</g>
<g>
	<g>
		<rect x="280" y="296" class="st0" width="16" height="16"/>
	</g>
</g>
</svg>
