<?xml version="1.0" encoding="utf-8"?>
<!-- Generator: Adobe Illustrator 24.3.0, SVG Export Plug-In . SVG Version: 6.00 Build 0)  -->
<svg version="1.1" id="Layer_1" xmlns="http://www.w3.org/2000/svg" xmlns:xlink="http://www.w3.org/1999/xlink" x="0px" y="0px"
	 viewBox="0 0 512 512" style="enable-background:new 0 0 512 512;" xml:space="preserve">
<style type="text/css">
	.st0{fill:#F79256;}
</style>
<g>
	<path class="st0" d="M215.8,200.8c-30.4,0-55.2,24.7-55.2,55.2c0,0.9,0,1.8,0.1,2.7c-24.8,1.4-44.5,22-44.5,47.1
		c0,26,21.1,47.1,47.1,47.1c4.7,0,9.1-0.7,13.4-2c0,0.5,0,1,0,1.5c0,43.7,35.6,79.3,79.3,79.3s79.3-35.6,79.3-79.3c0-0.5,0-1,0-1.5
		c4.2,1.3,8.7,2,13.4,2c26,0,47.1-21.1,47.1-47.1c0-25.1-19.7-45.7-44.5-47.1c0-0.9,0.1-1.8,0.1-2.7c0-30.4-24.7-55.2-55.2-55.2
		c-15.8,0-30.1,6.7-40.2,17.4C245.9,207.5,231.7,200.8,215.8,200.8L215.8,200.8z M163.4,322.9c-9.4,0-17.1-7.7-17.1-17.1
		s7.7-17.1,17.1-17.1s17.1,7.7,17.1,17.1S172.8,322.9,163.4,322.9z M190.7,256c0-13.9,11.3-25.2,25.2-25.2S241,242.1,241,256
		c0,13.9-11.3,25.2-25.2,25.2S190.7,269.9,190.7,256L190.7,256z M348.6,288.6c9.4,0,17.1,7.7,17.1,17.1s-7.7,17.1-17.1,17.1
		s-17.1-7.7-17.1-17.1S339.2,288.6,348.6,288.6z M296.2,230.8c13.9,0,25.2,11.3,25.2,25.2c0,13.9-11.3,25.2-25.2,25.2
		S271,269.9,271,256C271,242.1,282.3,230.8,296.2,230.8z M305.3,352.4c0,27.2-22.1,49.3-49.3,49.3s-49.3-22.1-49.3-49.3
		s22.1-49.3,49.3-49.3S305.3,325.2,305.3,352.4z"/>
	<path class="st0" d="M507.6,245.4l-43.8-43.8V15c0-8.3-6.7-15-15-15h-64.3c-8.3,0-15,6.7-15,15v92.3L266.6,4.4
		c-5.9-5.9-15.4-5.9-21.2,0l-241,241c-5.9,5.9-5.9,15.4,0,21.2c5.9,5.9,15.4,5.9,21.2,0L48.2,244v253c0,8.3,6.7,15,15,15h385.6
		c8.3,0,15-6.7,15-15V244l22.6,22.6c5.9,5.9,15.4,5.9,21.2,0C513.5,260.7,513.5,251.3,507.6,245.4z M433.8,482H78.2V214L256,36.2
		L433.8,214V482z M433.8,171.6l-34.3-34.3V30h34.3V171.6z"/>
</g>
</svg>
