<?xml version="1.0" encoding="utf-8"?>
<!-- Generator: Adobe Illustrator 24.3.0, SVG Export Plug-In . SVG Version: 6.00 Build 0)  -->
<svg version="1.1" id="Layer_1" xmlns="http://www.w3.org/2000/svg" xmlns:xlink="http://www.w3.org/1999/xlink" x="0px" y="0px"
	 viewBox="0 0 512 397" style="enable-background:new 0 0 512 397;" xml:space="preserve">
<style type="text/css">
	.st0{fill:#F79256;}
</style>
<path class="st0" d="M394.2,230V65c0-25.4-20.7-46.1-46.1-46.1H64.1C38.7,18.9,18,39.6,18,65V230c0,25.4,20.7,46.1,46.1,46.1h41.3
	l0.9,41.6c0.3,12.5,14.6,19.5,24.6,11.9l71-53.5h146.2C373.5,276.1,394.2,255.4,394.2,230L394.2,230z M196.7,245.4
	c-3.3,0-6.6,1.1-9.2,3.1L136.4,287l-0.6-26.6c-0.2-8.4-7-15-15.4-15H64.1c-8.5,0-15.4-6.9-15.4-15.4V65c0-8.5,6.9-15.4,15.4-15.4
	h284.1c8.5,0,15.4,6.9,15.4,15.4V230c0,8.5-6.9,15.4-15.4,15.4L196.7,245.4L196.7,245.4z M494,160.9v126.7
	c0,25.4-20.7,46.1-46.1,46.1h-41.4l-0.8,32.1c-0.2,8.3-7.1,15-15.3,15c-6.1,0-2.7,1.1-79.5-47h-70.2c-8.5,0-15.4-6.9-15.4-15.4
	c0-8.5,6.9-15.4,15.4-15.4c81.4,0,77.6-0.9,82.8,2.3l52.3,32.7l0.5-20.1c0.2-8.3,7-15,15.4-15h56.4c8.5,0,15.4-6.9,15.4-15.4V160.9
	c0-8.5-6.9-15.4-15.4-15.4c-8.5,0-15.4-6.9-15.4-15.4c0-8.5,6.9-15.4,15.4-15.4C473.3,114.9,494,135.5,494,160.9L494,160.9z
	 M302.1,119.7c0,8.5-6.9,15.4-15.4,15.4H125.5c-8.5,0-15.4-6.9-15.4-15.4s6.9-15.4,15.4-15.4h161.2
	C295.2,104.3,302.1,111.2,302.1,119.7z M274.2,186.8c0,8.5-6.9,15.4-15.4,15.4H153.3c-8.5,0-15.4-6.9-15.4-15.4s6.9-15.4,15.4-15.4
	h105.6C267.4,171.5,274.2,178.4,274.2,186.8z"/>
</svg>
