<?xml version="1.0" encoding="utf-8"?>
<!-- Generator: Adobe Illustrator 24.3.0, SVG Export Plug-In . SVG Version: 6.00 Build 0)  -->
<svg version="1.1" id="Capa_1" xmlns="http://www.w3.org/2000/svg" xmlns:xlink="http://www.w3.org/1999/xlink" x="0px" y="0px"
	 viewBox="0 0 512 512" style="enable-background:new 0 0 512 512;" xml:space="preserve">
<style type="text/css">
	.st0{fill:#38B000;stroke:#38B000;stroke-width:17;stroke-miterlimit:10;}
</style>
<path class="st0" d="M362.4,179.6c7.3,7.3,7.3,19.3,0,26.6L236.2,332.4c-7.3,7.3-19.3,7.3-26.6,0l-60.1-60.1
	c-7.3-7.3-7.3-19.3,0-26.6s19.3-7.3,26.6,0l46.8,46.8l112.9-112.9C343.2,172.2,355.1,172.2,362.4,179.6z M496.8,256
	c0,133.1-107.7,240.8-240.8,240.8S15.2,389.1,15.2,256S122.9,15.2,256,15.2S496.8,122.9,496.8,256z M459.2,256
	c0-112.3-90.9-203.2-203.2-203.2C143.7,52.8,52.8,143.7,52.8,256S143.7,459.2,256,459.2S459.2,368.3,459.2,256z"/>
</svg>
