<?xml version="1.0" encoding="utf-8"?>
<!-- Generator: Adobe Illustrator 24.3.0, SVG Export Plug-In . SVG Version: 6.00 Build 0)  -->
<svg version="1.1" id="Capa_1" xmlns="http://www.w3.org/2000/svg" xmlns:xlink="http://www.w3.org/1999/xlink" x="0px" y="0px"
	 viewBox="0 0 391.5 475.1" style="enable-background:new 0 0 391.5 475.1;" xml:space="preserve">
<style type="text/css">
	.st0{fill:#F79256;}
</style>
<path class="st0" d="M360.4,318.7c0,2.1,0,4.1,0,6c0,46.4,0,92.8,0,139.1c0,9-2.3,11.3-11.2,11.3c-102.2,0-204.5,0-306.7,0
	c-9.1,0-11.3-2.3-11.3-11.2c0-46.4,0-92.8,0-139.1c0-1.9,0-3.9,0-6.5c-7.2,0-14.2,0-21.2,0c-9.1,0-12.4-5.3-8.3-13.5
	c9.7-19.6,19.6-39.1,29.2-58.7c2.2-4.6,5.4-6.4,10.4-6.3c26.1,0.1,52.3,0.1,78.4,0.1c1.8,0,3.5,0,4.8,0c0.9-7.9,1.1-15.4,2.6-22.7
	c2.8-13.4,10-24.4,20.6-33c2.4-2,2.9-3.6,2.2-6.6c-2.3-9-3.8-18.2-6.4-27.1c-2.5-8.6-2.2-16.8-0.6-25.5c4.8-25,9.3-50,13.6-75.1
	c0.7-4,2.5-5.2,6.1-6c35.2-7.3,70.3-14.6,105.2-22.6c7.3-1.7,14.4-5.4,20.9-9.3c9.9-5.9,20.2-8,31.7-7.5c14.2,0.7,28.4,0.2,42.6,0.2
	c1.6,0,3.2,0,5.2,0c0,1.7,0,3,0,4.3c0,18.9,0,37.9-0.1,56.8c0,2.2-0.6,4.6-1.5,6.5c-10.1,20.5-20.3,40.9-30.7,61.2
	c-1,1.9-3.5,3.8-5.7,4.2c-13.6,2.6-27.3,4.7-41,7.1c-1.7,0.3-3.6,1.5-4.7,2.8c-13.3,17.4-26.5,34.8-39.6,52.3
	c-0.9,1.1-1.3,3.5-0.7,4.7c5.2,10.9,7.1,22.3,5.9,35.1c2.1,0,3.9,0,5.8,0c31.2,0,62.4,0.1,93.6-0.1c5.4,0,8.8,1.7,11.2,6.7
	c9.4,19.3,19.2,38.5,28.8,57.8c4.4,8.8,1.3,13.9-8.5,14c-6.4,0-12.7,0-19.1,0C361.7,318.4,361.4,318.5,360.4,318.7z M47,459.1
	c99.4,0,198.4,0,297.3,0c0-47.1,0-93.9,0-140.5c-99.3,0-198.2,0-297.3,0C47,365.5,47,412.1,47,459.1z M352.5,20.4
	c-10.8,0-20.9,0.5-31-0.1c-9.8-0.6-18.5,1.7-27,6.3c-7.4,4-15.1,8.3-23.2,10.1c-31.9,7.4-64,14-96,20.7c-3.5,0.7-4.5,2.3-5,5.3
	c-3.1,17.5-6.4,35-9.5,52.5c-2.1,11.9-5.7,23.7-1.2,36c2.6,7.1,3.7,14.7,5.4,22c7.1-1.5,13.5-2.9,20.1-4.4c-0.2-1.5-0.5-2.8-0.7-4.1
	c-1.7-13.1-5.7-26-2.5-39.6c3.2-13.7,4.9-27.8,7.3-42c16.2,0,32-0.1,47.9,0.1c1.4,0,3.1,1.5,4,2.8c5.6,8.1,10.7,16.4,16.5,24.3
	c2.5,3.5,2,5.7-0.4,8.8c-16.9,22-33.6,44.2-50.3,66.3c-5.7,7.6-2.9,16.7,5.9,18.9c5.7,1.5,10-0.8,13.5-5.5
	c16.2-21.7,32.6-43.3,49.1-64.8c1.5-1.9,4.3-3.4,6.7-3.9c12.5-2.4,25.1-4.4,37.6-6.3c3-0.5,4.8-1.7,6.2-4.6
	c8.2-16.8,16.7-33.6,25-50.4c0.7-1.4,1.7-3,1.7-4.5C352.6,50,352.5,35.5,352.5,20.4z M289.6,286.6c-62.8,0-125.2,0-187.5,0
	c0-5.3,0-10.2,0-15.7c12.3,0,24.2,0,36.3,0c-2.5-4.4-5.1-8.2-7-12.3c-1.2-2.6-2.7-3.1-5.2-3.1c-26.1,0.1-52.2,0.1-78.4,0
	c-3.2,0-4.6,1.2-5.8,3.8c-6.4,13-12.9,26-19.4,39c-0.6,1.3-1.1,2.6-1.7,4c116.8,0,233.3,0,350.3,0c-7.6-15.2-14.9-29.9-22.4-44.5
	c-0.6-1.1-2.5-2.1-3.8-2.1c-32-0.1-64-0.1-96,0c-1.2,0-2.9,0.7-3.5,1.6c-2.7,4.4-5.1,8.9-7.9,14c17.5,0,34.7,0,52.2,0
	C289.6,276.6,289.6,281.4,289.6,286.6z M231.6,215.8c-19,12.8-48.8-1.8-42.9-30.4c-0.6-0.1-1.3-0.3-1.9-0.3
	c-19.1-0.2-37.8,13.8-43.8,32.7c-6,19.1,1,41,16.9,51.9c1.5,1,3.6,1.5,5.4,1.6c15,0.1,30,0.1,45.1,0c1.7,0,3.6-0.4,5-1.2
	C232.1,259.4,239.6,234.6,231.6,215.8z M202.6,98.8c-4.3,22.8-10,44.9-1.1,67.6c13.1-17.3,26.3-34.7,39.5-52.2
	c-3.1-4.7-6-9.2-9.1-13.6c-0.6-0.9-2-1.7-3.1-1.7C220.2,98.7,211.5,98.8,202.6,98.8z"/>
<path class="st0" d="M177.3,341.7c4.7,1.3,9.5,2.1,14,3.9c3.2,1.3,5.6,1.6,9,0c20.5-9.3,44.9,1.8,49.6,22.5
	c2.6,11.2-0.5,21.2-8.8,29.1c-12.9,12.2-26.2,24.1-39.4,36c-4.3,3.9-7.9,3.7-12.5-0.6c-12.5-11.3-24.9-22.6-37.3-34
	c-9.9-9.1-13.8-20.2-9.5-33.2c4.4-13.4,14.7-20.2,28.2-22.6c2.1-0.4,4.2-0.4,6.3-0.5C177.1,342.1,177.2,341.9,177.3,341.7z
	 M195.8,417.5c11.6-10.6,22.9-20.7,34-31.1c7.7-7.3,6.9-17.9-1.4-24.1c-7.6-5.6-17.9-5.6-26.1,0.1c-5.8,4.1-7.2,4.1-13-0.1
	c-5.4-3.8-11.3-5.1-17.6-3.7c-6.7,1.5-12,5-14.3,11.9c-1.9,5.9-0.4,11.2,3.9,15.3C172.4,396.4,184,406.7,195.8,417.5z"/>
<path class="st0" d="M282.3,428.2c5.2,0,9.9,0,15,0c0,5,0,10,0,15.2c-4.8,0-9.7,0-15,0C282.3,438.5,282.3,433.5,282.3,428.2z"/>
<path class="st0" d="M313.7,428.3c5.2,0,10,0,15.1,0c0,5,0,9.8,0,15.1c-4.8,0-9.8,0-15.1,0C313.7,438.6,313.7,433.6,313.7,428.3z"/>
</svg>
