<?xml version="1.0" encoding="utf-8"?>
<!-- Generator: Adobe Illustrator 24.3.0, SVG Export Plug-In . SVG Version: 6.00 Build 0)  -->
<svg version="1.1" id="Capa_1" xmlns="http://www.w3.org/2000/svg" xmlns:xlink="http://www.w3.org/1999/xlink" x="0px" y="0px"
	 viewBox="0 0 394.8 394.8" style="enable-background:new 0 0 394.8 394.8;" xml:space="preserve">
<style type="text/css">
	.st0{fill:#DC3545;stroke:#DC3545;stroke-width:16;stroke-miterlimit:10;}
	.st1{fill:#DC3545;}
</style>
<g>
	<g>
		<path class="st0" d="M197,17.6c-99.6,0-180.1,80.6-180.1,180.1c0,99.6,80.6,180.1,180.1,180.1c99.6,0,180.1-80.6,180.1-180.1
			C377.1,98.1,296.5,17.6,197,17.6z M197,349.7c-84,0-152-68-152-152c0-84,68-152,152-152c84,0,152,68,152,152
			C349,281.7,281,349.7,197,349.7z"/>
	</g>
</g>
<g>
	<g>
		<path class="st0" d="M197,108.3c-7.8,0-14.1,6.3-14.1,14.1v90.6c0,7.8,6.3,14.1,14.1,14.1c7.8,0,14.1-6.3,14.1-14.1v-90.6
			C211.1,114.6,204.8,108.3,197,108.3z"/>
	</g>
</g>
<g>
	<g>
		<circle class="st1" cx="197.1" cy="276.3" r="27"/>
	</g>
</g>
</svg>
