<svg width="1366" height="241" viewBox="0 0 1366 241" fill="none" xmlns="http://www.w3.org/2000/svg">
<path fill-rule="evenodd" clip-rule="evenodd" d="M-7.73125 43.6946C-13.2688 45.0462 -18.8076 46.5392 -24.3479 48.1734L-33.9673 15.5626C36.3778 -5.18752 106.924 -5.18752 177.269 15.5626C241.335 34.4604 305.2 34.4604 369.266 15.5626C439.611 -5.18752 510.156 -5.18752 580.502 15.5626C644.568 34.4604 708.433 34.4604 772.499 15.5626C842.844 -5.18752 913.389 -5.18752 983.735 15.5626C1047.8 34.4604 1111.67 34.4604 1175.73 15.5626C1246.08 -5.18752 1316.62 -5.18752 1386.97 15.5626L1377.35 48.1734C1374.6 47.3622 1371.85 46.5858 1369.1 45.8443V158.922H1366V241.275H7.62939e-06V158.922H-3.04088V45.9033C-4.79736 45.1944 -6.36612 44.457 -7.73125 43.6946Z" fill="#F79256"/>
</svg>
