<svg xmlns="http://www.w3.org/2000/svg" viewBox="0 0 135.22 66.95"><defs><style>.cls-1{fill:#fff;}</style></defs><g id="Capa_2" data-name="Capa 2"><g id="Capa_1-2" data-name="Capa 1"><path class="cls-1" d="M50,66.81,47,61.5H45.7v5.31H43V53.19h5.12a6,6,0,0,1,2.69.55,3.91,3.91,0,0,1,1.67,1.51,4.24,4.24,0,0,1-.23,4.54,4,4,0,0,1-2.32,1.5l3.26,5.52Zm-4.3-7.36H48a2.33,2.33,0,0,0,1.66-.53,2,2,0,0,0,.54-1.5A1.91,1.91,0,0,0,49.65,56,2.33,2.33,0,0,0,48,55.45H45.7Z"/><path class="cls-1" d="M60.17,55.39v3.42h4.58V61H60.17v3.61h5.17v2.23H57.43V53.17h7.91v2.22Z"/><path class="cls-1" d="M78.18,53.19v2.2H72.5v3.5h4.35v2.16H72.5v5.76H69.77V53.19Z"/><path class="cls-1" d="M84.75,53.19v8.43a2.91,2.91,0,0,0,.73,2.12,2.74,2.74,0,0,0,2,.73,2.8,2.8,0,0,0,2-.73,2.91,2.91,0,0,0,.72-2.12V53.19H93V61.6a5.44,5.44,0,0,1-.75,2.94,4.72,4.72,0,0,1-2,1.8,6.42,6.42,0,0,1-2.8.61,6.22,6.22,0,0,1-2.76-.61,4.62,4.62,0,0,1-2-1.8A5.62,5.62,0,0,1,82,61.6V53.19Z"/><path class="cls-1" d="M107.1,57.29A3.13,3.13,0,0,0,105.81,56a3.88,3.88,0,0,0-1.91-.45,4.15,4.15,0,0,0-2.15.55,3.74,3.74,0,0,0-1.46,1.56,5.47,5.47,0,0,0,0,4.72,3.74,3.74,0,0,0,1.49,1.56,4.36,4.36,0,0,0,2.23.55,3.85,3.85,0,0,0,2.55-.83,4,4,0,0,0,1.31-2.31H103.2V59.24h7.37v2.38a6.29,6.29,0,0,1-1.17,2.63,6.52,6.52,0,0,1-2.31,1.94,6.77,6.77,0,0,1-3.17.74,7.18,7.18,0,0,1-3.56-.89,6.45,6.45,0,0,1-2.5-2.47,7.56,7.56,0,0,1,0-7.19,6.41,6.41,0,0,1,2.5-2.48,7.6,7.6,0,0,1,7.54.23,5.74,5.74,0,0,1,2.34,3.16Z"/><path class="cls-1" d="M117.29,53.19V66.81h-2.73V53.19Z"/><path class="cls-1" d="M124.74,66.05a6.82,6.82,0,0,1-2.54-2.49,7.39,7.39,0,0,1,0-7.18,6.82,6.82,0,0,1,2.54-2.49,7.33,7.33,0,0,1,7,0,6.6,6.6,0,0,1,2.51,2.49,7.39,7.39,0,0,1,0,7.18,6.62,6.62,0,0,1-2.52,2.49,7.31,7.31,0,0,1-7,0Zm5.68-2.1a3.75,3.75,0,0,0,1.46-1.59,5.11,5.11,0,0,0,.53-2.4,5,5,0,0,0-.53-2.39A3.7,3.7,0,0,0,130.42,56a4.17,4.17,0,0,0-2.17-.55,4.22,4.22,0,0,0-2.17.55,3.72,3.72,0,0,0-1.47,1.57,5,5,0,0,0-.53,2.39,5.11,5.11,0,0,0,.53,2.4A3.77,3.77,0,0,0,126.08,64a4.22,4.22,0,0,0,2.17.56A4.17,4.17,0,0,0,130.42,64Z"/><path class="cls-1" d="M67.52.6V22.06H62.29V9.19l-4.8,12.87H53.27L48.44,9.16v12.9H43.22V.6h6.17l6,14.86L61.37.6Z"/><path class="cls-1" d="M79.56,4.79V9.13h7v4h-7v4.71h7.92v4.19H74.33V.6H87.48V4.79Z"/><path class="cls-1" d="M109.36.6V4.79h-5.68V22.06H98.45V4.79H92.76V.6Z"/><path class="cls-1" d="M128.4,18.27h-8l-1.29,3.79h-5.47L121.4.6h6.06l7.76,21.46h-5.53Zm-1.34-4L124.4,6.38l-2.63,7.85Z"/><path class="cls-1" d="M59,37.19a6.48,6.48,0,0,1-2.72,2.58,9.55,9.55,0,0,1-4.56,1H48.39v8H43V26.5h8.78a9.92,9.92,0,0,1,4.5.92A6.27,6.27,0,0,1,59,30a7.4,7.4,0,0,1,.92,3.71A7.17,7.17,0,0,1,59,37.19Zm-5.38-1.47a2.76,2.76,0,0,0,.76-2.06,2.73,2.73,0,0,0-.76-2.06,3.22,3.22,0,0,0-2.31-.73h-3v5.57h3A3.26,3.26,0,0,0,53.65,35.72Z"/><path class="cls-1" d="M79.75,44.81h-8.3l-1.33,3.93H64.45l8-22.24h6.27l8,22.24H81.08Zm-1.39-4.18L75.6,32.49l-2.72,8.14Z"/><path class="cls-1" d="M108.42,26.5v4.34h-5.89v17.9H97.11V30.84H91.22V26.5Z"/><path class="cls-1" d="M128.16,44.81h-8.3l-1.33,3.93h-5.67l8-22.24h6.28l8,22.24h-5.73Zm-1.4-4.18L124,32.49l-2.73,8.14Z"/><path class="cls-1" d="M38.82,15C39.1-7.41,16.35,2.54,8.83.48-4.37,0,1.5,38.57.29,51.33,0,73.69,22.75,63.75,30.28,65.8,43.48,66.27,37.61,27.72,38.82,15ZM31.53,39c.29,6-6.45,10.57-11.76,7.57C14.51,49.6,7.71,45.09,7.94,39.09a9.87,9.87,0,0,1,.82-3.45c-4.34-2.8-5-11.7,1.47-12.09.24-2.56,1.78-4.75,5-4.79a5.43,5.43,0,0,1,4.47,2.16,5.47,5.47,0,0,1,4.48-2.16c3.17,0,4.72,2.23,5,4.79,6.42.38,5.82,9.12,1.58,12A9.94,9.94,0,0,1,31.53,39Z"/><path class="cls-1" d="M13.11,35c-5.23,4.92,2.54,12.89,6.64,7,4.17,5.85,11.84-2.2,6.57-7.07C19.32,27.88,20,27.87,13.11,35Zm8.14,6c-.75-.91-.43-1.78-1.51-1.9-1.09.12-.76,1-1.5,1.91a2.67,2.67,0,0,1-4.21.37c-2.84-3.76,2.15-6.83,5.67-10,2.81,2.4,6.79,5.37,6.56,7.7C26.54,41.86,22.67,43.37,21.25,41Z"/><path class="cls-1" d="M9.47,26.34C6.2,28,8.7,34,11.78,33.88,16.52,33.66,13.68,24.68,9.47,26.34Zm.95,1.1c2.09,0,3.49,4.2,1.79,5C10.26,33.38,7.62,28.05,10.42,27.44Z"/><path class="cls-1" d="M16.55,29.11c5-.46,1.49-9.34-2.32-7.54C11.16,22.88,13.15,29.16,16.55,29.11Zm-1.36-6.43c1.75,0,3.69,3.78,1.78,5C14.52,28.47,12.7,22.93,15.19,22.68Z"/><path class="cls-1" d="M29.86,26.34c-4.22-1.66-7,7.32-2.31,7.54C30.63,34,33.13,28,29.86,26.34Zm-2.74,6.15c-1.7-.85-.3-5,1.79-5.05C31.71,28.05,29.07,33.37,27.12,32.49Z"/><path class="cls-1" d="M22.78,29.11c3.4.05,5.38-6.23,2.31-7.54C21.28,19.77,17.78,28.65,22.78,29.11Zm1.36-6.43c2.49.25.66,5.79-1.78,5C20.45,26.46,22.39,22.66,24.14,22.68Z"/></g></g></svg>