<?xml version="1.0" encoding="utf-8"?>
<!-- Generator: Adobe Illustrator 24.3.0, SVG Export Plug-In . SVG Version: 6.00 Build 0)  -->
<svg version="1.1" id="Capa_1" xmlns="http://www.w3.org/2000/svg" xmlns:xlink="http://www.w3.org/1999/xlink" x="0px" y="0px"
	 viewBox="0 0 444.8 296" style="enable-background:new 0 0 444.8 296;" xml:space="preserve">
<style type="text/css">
	.st0{fill:#17C3B2;}
</style>
<g>
	<path class="st0" d="M434.3,41l-21.4-21.4c-7.4-7-16.1-10.6-26-10.6c-10.1,0-18.7,3.5-25.7,10.6L222.4,158.4L83.7,19.6
		C76.6,12.6,68,9,58,9c-9.9,0-18.6,3.5-26,10.6L10.8,41C3.6,48.2,0,56.9,0,67c0,10.3,3.6,18.8,10.8,25.7l185.9,185.9
		c6.9,7.2,15.4,10.8,25.7,10.8c10.1,0,18.8-3.6,26-10.8L434.3,92.7c7-7,10.6-15.6,10.6-25.7C444.8,57.1,441.3,48.4,434.3,41z"/>
</g>
</svg>
