<svg width="147" height="15" viewBox="0 0 147 15" fill="none" xmlns="http://www.w3.org/2000/svg">
<path d="M3 7.5C7.7 2.83333 12.4 2.83333 17.1 7.5C21.8 12.1667 26.5 12.1667 31.2 7.5C35.9 2.83333 40.6 2.83333 45.3 7.5C50 12.1667 54.7 12.1667 59.4 7.5C64.1 2.83333 68.8 2.83333 73.5 7.5C78.2 12.1667 82.9 12.1667 87.6 7.5C92.3 2.83333 97 2.83333 101.7 7.5C106.4 12.1667 111.1 12.1667 115.8 7.5C120.5 2.83333 125.2 2.83333 129.9 7.5C134.6 12.1667 139.3 12.1667 144 7.5" stroke="#F79256" stroke-width="7"/>
</svg>
