<svg width="145" height="11" viewBox="0 0 145 11" fill="none" xmlns="http://www.w3.org/2000/svg">
<path d="M2 5.5C6.7 0.833333 11.4 0.833333 16.1 5.5C20.8 10.1667 25.5 10.1667 30.2 5.5C34.9 0.833333 39.6 0.833333 44.3 5.5C49 10.1667 53.7 10.1667 58.4 5.5C63.1 0.833333 67.8 0.833333 72.5 5.5C77.2 10.1667 81.9 10.1667 86.6 5.5C91.3 0.833333 96 0.833333 100.7 5.5C105.4 10.1667 110.1 10.1667 114.8 5.5C119.5 0.833333 124.2 0.833333 128.9 5.5C133.6 10.1667 138.3 10.1667 143 5.5" stroke="#F79256" stroke-width="4"/>
</svg>
